<?xml version="1.0" encoding="UTF-8" ?>
<!DOCTYPE svg PUBLIC "-//W3C//DTD SVG 1.1//EN" "http://www.w3.org/Graphics/SVG/1.1/DTD/svg11.dtd">
<svg width="183pt" height="62pt" viewBox="0 0 183 62" version="1.1" xmlns="http://www.w3.org/2000/svg">
<path fill="#ffffff" d=" M 0.00 0.00 L 26.45 0.00 C 30.28 9.31 33.13 18.99 36.21 28.57 C 42.21 24.59 48.04 20.36 53.81 16.04 C 49.21 21.21 43.90 25.65 38.76 30.25 C 47.24 31.99 55.55 34.49 64.05 36.13 C 64.53 28.89 63.92 21.28 59.91 15.02 C 55.01 7.11 46.58 1.73 37.49 0.00 L 183.00 0.00 L 183.00 40.07 C 180.58 33.55 171.51 36.65 168.35 31.01 C 171.17 27.92 176.93 27.62 178.52 32.10 C 179.99 32.14 181.47 32.17 182.96 32.19 C 181.99 29.70 181.02 26.67 178.15 25.81 C 174.64 24.76 170.66 24.80 167.27 26.25 C 163.05 28.07 163.05 34.80 167.05 36.85 C 169.72 38.11 172.69 38.44 175.47 39.37 C 176.70 39.70 178.10 40.50 177.96 41.99 C 178.01 45.06 174.03 45.00 171.87 44.75 C 169.55 44.75 168.68 42.37 167.69 40.72 C 166.25 40.70 164.80 40.69 163.35 40.69 C 164.03 43.23 164.59 46.39 167.42 47.44 C 172.57 49.31 179.77 49.30 183.00 44.09 L 183.00 62.00 L 35.61 62.00 C 46.79 60.86 57.45 53.59 61.78 43.11 C 53.96 39.74 45.97 36.72 37.96 33.80 C 39.78 39.73 42.13 45.48 44.02 51.39 C 40.47 45.85 37.99 39.74 35.07 33.87 C 27.29 40.83 19.93 48.26 12.01 55.05 C 17.51 58.65 23.59 61.71 30.29 62.00 L 0.00 62.00 L 0.00 0.00 Z" />
<path fill="#84b734" d=" M 26.45 0.00 L 37.49 0.00 C 46.58 1.73 55.01 7.11 59.91 15.02 C 63.92 21.28 64.53 28.89 64.05 36.13 C 55.55 34.49 47.24 31.99 38.76 30.25 C 43.90 25.65 49.21 21.21 53.81 16.04 C 48.04 20.36 42.21 24.59 36.21 28.57 C 33.13 18.99 30.28 9.31 26.45 0.00 Z" />
<path fill="#739929" d=" M 8.04 11.09 C 10.98 7.27 15.20 4.81 19.34 2.50 C 23.66 11.21 28.10 19.84 32.43 28.54 C 26.23 27.32 20.26 25.11 13.99 24.26 C 19.99 26.87 26.16 29.09 32.31 31.35 C 23.89 37.36 15.53 43.46 6.92 49.18 C -1.57 38.23 -0.87 21.60 8.04 11.09 Z" />
<path fill="#1f2518" d=" M 79.20 16.15 C 82.27 12.77 87.41 12.73 91.55 13.62 C 96.85 15.11 98.92 21.18 98.98 26.15 C 97.32 26.15 95.66 26.14 94.01 26.13 C 93.68 23.42 93.33 20.02 90.54 18.66 C 87.52 17.53 83.12 18.06 81.74 21.40 C 79.79 26.01 80.03 31.22 80.51 36.10 C 80.90 38.86 81.78 42.40 84.83 43.27 C 87.16 43.95 90.17 44.08 91.92 42.11 C 93.55 40.45 93.61 38.01 93.99 35.87 C 95.65 35.86 97.30 35.85 98.96 35.85 C 98.78 40.76 96.80 46.80 91.50 48.22 C 86.95 49.30 81.10 48.87 78.29 44.58 C 75.39 39.97 75.31 34.29 75.41 29.02 C 75.57 24.55 76.16 19.67 79.20 16.15 Z" />
<path fill="#1f2518" d=" M 103.09 30.05 C 105.19 24.61 112.33 24.24 117.08 25.89 C 121.65 27.80 122.36 33.34 122.25 37.69 C 117.04 37.63 111.83 37.64 106.62 37.62 C 107.10 39.97 106.97 43.07 109.43 44.36 C 112.72 45.76 116.74 44.45 117.81 40.88 C 119.35 40.88 120.90 40.89 122.44 40.90 C 121.51 49.27 109.50 50.92 104.28 45.68 C 101.23 41.18 101.36 35.03 103.09 30.05 Z" />
<path fill="#1f2518" d=" M 130.94 29.24 C 132.98 26.75 135.75 25.05 139.02 24.80 C 138.99 26.34 138.98 27.88 138.95 29.43 C 135.70 29.60 132.39 31.63 131.81 35.03 C 131.42 39.30 131.73 43.60 131.71 47.88 C 130.11 47.89 128.51 47.90 126.91 47.91 C 126.86 40.46 127.08 33.00 126.62 25.56 C 128.02 25.59 129.41 25.62 130.81 25.65 C 130.84 26.55 130.91 28.34 130.94 29.24 Z" />
<path fill="#1f2518" d=" M 140.64 34.09 C 140.79 30.32 143.11 26.26 147.03 25.45 C 150.58 24.86 154.83 24.69 157.72 27.21 C 160.44 29.92 161.00 34.02 160.95 37.70 C 155.71 37.63 150.48 37.66 145.24 37.60 C 145.49 39.94 145.50 42.87 147.80 44.23 C 150.97 45.78 155.31 44.43 156.45 40.91 C 158.03 40.89 159.62 40.88 161.21 40.89 C 160.29 43.45 159.25 46.37 156.47 47.44 C 152.57 48.95 147.72 49.17 144.11 46.82 C 140.31 43.84 140.30 38.47 140.64 34.09 Z" />
<path fill="#1f2518" d=" M 167.27 26.25 C 170.66 24.80 174.64 24.76 178.15 25.81 C 181.02 26.67 181.99 29.70 182.96 32.19 C 181.47 32.17 179.99 32.14 178.52 32.10 C 176.93 27.62 171.17 27.92 168.35 31.01 C 171.51 36.65 180.58 33.55 183.00 40.07 L 183.00 44.09 C 179.77 49.30 172.57 49.31 167.42 47.44 C 164.59 46.39 164.03 43.23 163.35 40.69 C 164.80 40.69 166.25 40.70 167.69 40.72 C 168.68 42.37 169.55 44.75 171.87 44.75 C 174.03 45.00 178.01 45.06 177.96 41.99 C 178.10 40.50 176.70 39.70 175.47 39.37 C 172.69 38.44 169.72 38.11 167.05 36.85 C 163.05 34.80 163.05 28.07 167.27 26.25 Z" />
<path fill="#ffffff" d=" M 106.70 34.22 C 107.17 31.49 108.69 28.17 112.04 28.59 C 115.43 28.10 117.21 31.38 117.72 34.20 C 114.05 34.22 110.37 34.22 106.70 34.22 Z" />
<path fill="#ffffff" d=" M 145.18 34.19 C 145.79 31.74 146.98 28.51 150.08 28.61 C 153.53 28.12 155.82 31.14 156.39 34.19 C 152.65 34.23 148.91 34.23 145.18 34.19 Z" />
<path fill="#537716" d=" M 12.01 55.05 C 19.93 48.26 27.29 40.83 35.07 33.87 C 37.99 39.74 40.47 45.85 44.02 51.39 C 42.13 45.48 39.78 39.73 37.96 33.80 C 45.97 36.72 53.96 39.74 61.78 43.11 C 57.45 53.59 46.79 60.86 35.61 62.00 L 30.29 62.00 C 23.59 61.71 17.51 58.65 12.01 55.05 Z" />
</svg>
